<?xml version="1.0" encoding="UTF-8" standalone="no"?>
<svg
   id="svg8"
   version="1.1"
   viewBox="0 0 216.652 59.959084"
   height="59.959084mm"
   width="216.65199mm"
   xmlns="http://www.w3.org/2000/svg"
   xmlns:svg="http://www.w3.org/2000/svg"
   xmlns:rdf="http://www.w3.org/1999/02/22-rdf-syntax-ns#"
   xmlns:cc="http://creativecommons.org/ns#"
   xmlns:dc="http://purl.org/dc/elements/1.1/">
  <defs
     id="defs2">
    <clipPath
       clipPathUnits="userSpaceOnUse"
       id="clipPath224">
      <path
         d="M 0,0 H 595.276 V 841.89 H 0 Z"
         id="path226" />
    </clipPath>
    <clipPath
       clipPathUnits="userSpaceOnUse"
       id="clipPath200">
      <path
         d="M 0,0 H 595.276 V 841.89 H 0 Z"
         id="path202" />
    </clipPath>
    <clipPath
       clipPathUnits="userSpaceOnUse"
       id="clipPath182">
      <path
         d="M 0,0 H 595.276 V 841.89 H 0 Z"
         id="path184" />
    </clipPath>
    <clipPath
       clipPathUnits="userSpaceOnUse"
       id="clipPath162">
      <path
         d="M 0,0 H 595.276 V 841.89 H 0 Z"
         id="path164" />
    </clipPath>
    <clipPath
       clipPathUnits="userSpaceOnUse"
       id="clipPath112">
      <path
         d="M 0,0 H 595.276 V 841.89 H 0 Z"
         id="path114" />
    </clipPath>
    <clipPath
       clipPathUnits="userSpaceOnUse"
       id="clipPath86">
      <path
         d="M 0,0 H 595.276 V 841.89 H 0 Z"
         id="path88" />
    </clipPath>
    <clipPath
       clipPathUnits="userSpaceOnUse"
       id="clipPath72">
      <path
         d="M 0,0 H 595.276 V 841.89 H 0 Z"
         id="path74" />
    </clipPath>
  </defs>
  <metadata
     id="metadata5">
    <rdf:RDF>
      <cc:Work
         rdf:about="">
        <dc:format>image/svg+xml</dc:format>
        <dc:type
           rdf:resource="http://purl.org/dc/dcmitype/StillImage" />
      </cc:Work>
    </rdf:RDF>
  </metadata>
  <g
     transform="translate(-35.649058,-46.436721)"
     id="layer1">
    <g
       id="g8078">
      <g
         aria-label="life"
         id="text7174"
         style="font-size:10.5833px;line-height:1.25;font-family:'AU Passata';-inkscape-font-specification:'AU Passata';fill:#f36f21;stroke-width:0.264583"
         transform="matrix(5.1465542,0,0,5.1897876,-321.04549,-889.05545)">
        <g
           id="g8146">
          <g
             id="g8200">
            <g
               transform="matrix(0.4909332,0,0,-0.48684349,79.17128,180.25635)"
               id="g246"
               style="fill:#00529c;fill-opacity:1">
              <path
                 id="path248"
                 style="fill:#00529c;fill-opacity:1;fill-rule:nonzero;stroke:none"
                 d="m 0,0 h -16.471 c -2,0 -3.621,-1.661 -3.621,-3.71 v -0.039 -16.273 c 0,-2.029 1.591,-3.679 3.565,-3.709 h 16.518 c 2,0 3.622,1.66 3.622,3.709 L 3.62,-3.71 C 3.62,-1.661 2,0 0,0 m -14.514,-21.83 -0.898,-0.01 c -1.088,0 -1.97,0.894 -1.97,1.997 l -0.005,0.157 v 15.064 l 0.006,0.812 c 0.041,1.067 0.852,1.925 1.913,1.925 h 1.827 c 1.656,0 2.998,-1.44 2.998,-3.137 0,-0.84 -0.329,-1.602 -0.862,-2.156 l -4.661,-4.73 4.369,-4.449 c 0.563,-0.581 0.903,-1.343 0.903,-2.178 0,-1.82 -1.62,-3.295 -3.62,-3.295 m 13.431,0.015 -8.145,0.003 c 0,0 0.941,2.035 0.941,3.295 0,1.537 -0.513,2.909 -1.317,3.817 l -2.786,2.84 2.843,2.938 c 0.847,0.795 1.409,2.207 1.409,3.816 0,1.274 -0.352,2.402 -0.919,3.221 h 1.973 c 1.656,0 2.999,-1.44 2.999,-3.137 0,-0.84 -0.329,-1.602 -0.862,-2.156 l -4.572,-4.681 9.496,-9.683 c -0.301,-0.189 -0.68,-0.273 -1.06,-0.273 m 1.989,3.023 -6.805,6.936 3.241,3.294 c 0.659,0.825 1.078,2.067 1.078,3.456 0,1.282 -0.357,2.439 -0.929,3.258 l 1.45,-0.044 c 1.088,0 1.97,-0.894 1.97,-1.997 z" />
            </g>
            <g
               id="g3232"
               transform="matrix(0.19430477,0,0,0.19268612,62.380668,171.30864)">
              <g
                 id="g8829"
                 transform="matrix(0.47418011,0,0,0.47239199,-122.00159,68.21275)">
                <g
                   id="g140"
                   transform="matrix(1.9934946,0,0,-1.9059367,534.08704,12.273574)">
                  <path
                     d="M 0,0 C 0.281,0.281 0.613,0.643 0.996,1.086 1.378,1.529 1.74,2.052 2.082,2.656 2.424,3.26 2.716,3.933 2.957,4.678 3.199,5.422 3.32,6.217 3.32,7.062 c 0,1.649 -0.282,3.188 -0.845,4.617 -0.564,1.428 -1.429,2.676 -2.596,3.743 -1.167,1.065 -2.625,1.901 -4.376,2.505 -1.75,0.603 -3.793,0.905 -6.126,0.905 h -0.064 -6.708 -1.746 -6.874 v -7.694 -26.636 -7.921 h 16.901 c 2.454,0 4.596,0.332 6.428,0.996 1.83,0.664 3.35,1.579 4.557,2.746 1.207,1.167 2.102,2.525 2.686,4.074 0.583,1.549 0.875,3.209 0.875,4.98 0,2.374 -0.543,4.486 -1.629,6.338 C 2.716,-2.435 1.448,-1.006 0,0 m -7.473,11.09 c 0.569,-0.217 1.044,-0.499 1.415,-0.854 0.961,-0.922 1.442,-2.024 1.442,-3.306 0,-1.163 -0.201,-2.124 -0.601,-2.885 C -5.618,3.283 -6.019,2.702 -6.419,2.302 h -11.749 v 9.287 h 7.303 c 1.369,0 2.496,-0.169 3.392,-0.499 m -1.219,-16.1 c 2.127,0 3.703,-0.551 4.729,-1.651 0.965,-1.083 1.451,-2.361 1.451,-3.84 0,-1.524 -0.551,-2.825 -1.653,-3.907 -1.103,-1.082 -2.915,-1.624 -5.44,-1.624 h -0.943 -7.62 V -5.01 Z"
                     style="fill:#00529c;fill-opacity:1;fill-rule:nonzero;stroke:none"
                     id="path142" />
                </g>
                <g
                   id="g144"
                   transform="matrix(1.9934946,0,0,-1.9059367,602.03735,22.224471)">
                  <path
                     d="m 0,0 c 1.267,0.865 2.324,1.871 3.169,3.018 0.845,1.147 1.468,2.414 1.871,3.802 0.402,1.389 0.604,2.807 0.604,4.256 0,1.891 -0.313,3.631 -0.936,5.221 -0.625,1.589 -1.56,2.957 -2.807,4.104 -1.248,1.147 -2.807,2.042 -4.678,2.686 -1.871,0.643 -4.034,0.966 -6.488,0.966 h -0.221 -16.257 -0.152 v -42.251 h 7.999 v 15.693 h 4.46 L -2.405,-18.198 H 6.971 L -4.436,-1.962 C -2.747,-1.52 -1.268,-0.866 0,0 m -9.205,16.81 c 0.503,0 0.978,-0.033 1.43,-0.09 1.426,-0.215 2.591,-0.724 3.489,-1.533 1.222,-1.103 1.833,-2.455 1.833,-4.057 0,-0.803 -0.131,-1.584 -0.391,-2.345 C -3.105,8.023 -3.515,7.352 -4.076,6.772 -4.638,6.19 -5.359,5.72 -6.24,5.359 -7.122,4.998 -8.184,4.818 -9.426,4.818 h -8.47 V 16.81 Z"
                     style="fill:#00529c;fill-opacity:1;fill-rule:nonzero;stroke:none"
                     id="path146" />
                </g>
                <g
                   id="g148"
                   transform="matrix(1.9934946,0,0,-1.9059367,621.56562,-23.619026)">
                  <path
                     d="M 0,0 V -0.012 C -0.081,-0.01 -0.16,0 -0.241,0 H -0.309 V -0.003 -15.49 -26.587 -42.251 H 7.847 V 0 Z"
                     style="fill:#00529c;fill-opacity:1;fill-rule:nonzero;stroke:none"
                     id="path150" />
                </g>
              </g>
            </g>
            <g
               id="g8119"
               transform="matrix(0.98573157,0,0,0.99057678,1.5590238,1.7127305)">
              <path
                 d="m 98.640535,182.3076 h 0.761998 v 7.40831 h -0.761998 z"
                 id="path7528" />
              <path
                 d="m 101.0112,184.42426 h 0.762 v 5.29165 h -0.762 z m 0,-2.11666 h 0.762 v 0.86783 h -0.762 z"
                 id="path7530" />
              <path
                 d="m 103.63587,185.14393 h -0.74083 v -0.71967 h 0.74083 v -0.40216 q 0,-0.92075 0.43392,-1.31233 0.43391,-0.40217 1.17474,-0.40217 h 0.21167 v 0.71967 h -0.21167 q -0.41274,0 -0.63499,0.23283 -0.21167,0.23283 -0.21167,0.81491 v 0.34925 h 1.05833 v 0.71967 h -1.05833 v 4.57198 h -0.762 z"
                 id="path7532" />
              <path
                 d="m 111.15001,188.34008 q -0.16933,0.32809 -0.43391,0.60325 -0.26459,0.27517 -0.59267,0.47625 -0.3175,0.1905 -0.6985,0.29633 -0.37041,0.10583 -0.77258,0.10583 -0.5715,0 -1.06891,-0.21166 -0.48683,-0.22225 -0.84667,-0.59267 -0.35983,-0.37041 -0.57149,-0.86783 -0.20109,-0.50799 -0.20109,-1.07949 0,-0.5715 0.20109,-1.06892 0.21166,-0.50799 0.57149,-0.87841 0.35984,-0.37042 0.84667,-0.58208 0.49741,-0.22225 1.06891,-0.22225 0.61383,0 1.12183,0.22225 0.508,0.22225 0.86783,0.62441 0.35983,0.40217 0.56092,0.98425 0.20108,0.5715 0.20108,1.28058 h -4.6249 q 0.0635,0.35983 0.22225,0.66675 0.15875,0.29633 0.39158,0.51858 0.24342,0.22225 0.56091,0.34925 0.3175,0.127 0.6985,0.127 0.48683,0 0.89958,-0.20109 0.42333,-0.20108 0.6985,-0.55033 z m -0.59266,-1.62983 q -0.0318,-0.34924 -0.20109,-0.65616 -0.15875,-0.30692 -0.41275,-0.52916 -0.25399,-0.22225 -0.59266,-0.34925 -0.32808,-0.127 -0.6985,-0.127 -0.381,0 -0.6985,0.127 -0.31749,0.127 -0.56091,0.34925 -0.23283,0.22224 -0.39158,0.52916 -0.15875,0.30692 -0.22225,0.65616 z"
                 id="path7534" />
            </g>
          </g>
        </g>
      </g>
    </g>
  </g>
</svg>
